<svg width="24" height="24" viewBox="0 0 24 24" fill="none" xmlns="http://www.w3.org/2000/svg">
<path d="M15 4.5C14.612 4.4 13.668 4 12 4C10.332 4 9.388 4.4 9 4.5C8.475 4.075 7.062 3 5.5 3C5.156 4 5.214 5.22 5.5 6C4.75 7 4.5 8 4.5 9.5C4.5 11.688 4.983 13.082 6 14C7.017 14.918 8.111 15.375 9.5 15.5C8.85 16.038 9 17.374 9 18V22H15V18C15 17.374 15.15 16.038 14.5 15.5C15.889 15.375 16.983 14.918 18 14C19.017 13.082 19.5 11.687 19.5 9.5C19.5 8 19.25 7 18.5 6C18.786 5.22 18.844 4 18.5 3C16.937 3 15.525 4.075 15 4.5Z" fill="#111827"/>
<path d="M12 4C13.668 4 14.612 4.4 15 4.5C15.525 4.075 16.938 3 18.5 3C18.844 4 18.786 5.22 18.5 6C19.25 7 19.5 8 19.5 9.5C19.5 11.688 19.017 13.082 18 14C16.983 14.918 15.889 15.375 14.5 15.5C15.15 16.038 15 17.374 15 18V21" stroke="#f3f4f6" stroke-width="2" stroke-linecap="round" stroke-linejoin="round"/>
<path d="M12 4C10.332 4 9.388 4.4 9 4.5C8.475 4.075 7.062 3 5.5 3C5.156 4 5.214 5.22 5.5 6C4.75 7 4.5 8 4.5 9.5C4.5 11.688 4.983 13.082 6 14C7.017 14.918 8.111 15.375 9.5 15.5C8.85 16.038 9 17.374 9 18V21" stroke="#f3f4f6" stroke-width="2" stroke-linecap="round" stroke-linejoin="round"/>
<path d="M9 19C7.594 19 6.156 18.437 5.312 17.812C4.47 17.188 4.22 16.157 3 15.5" stroke="#f3f4f6" stroke-width="2" stroke-linecap="round"/>
</svg>
